<svg width="24" height="24" viewBox="0 0 24 24" fill="none" xmlns="http://www.w3.org/2000/svg">
<path d="M9.5 5H9C8.46957 5 7.96086 5.21071 7.58579 5.58579C7.21071 5.96086 7 6.46957 7 7V9C7 10 6.4 12 4 12C5 12 7 12.6 7 15V17C7 17.5304 7.21071 18.0391 7.58579 18.4142C7.96086 18.7893 8.46957 19 9 19H9.5M14.5 5H15C15.5304 5 16.0391 5.21071 16.4142 5.58579C16.7893 5.96086 17 6.46957 17 7V9C17 10 17.6 12 20 12C19 12 17 12.6 17 15V17C17 17.5304 16.7893 18.0391 16.4142 18.4142C16.0391 18.7893 15.5304 19 15 19H14.5" stroke="black" stroke-width="2" stroke-linecap="round" stroke-linejoin="round"/>
</svg>
