<svg width="24" height="24" viewBox="0 0 24 24" fill="none" xmlns="http://www.w3.org/2000/svg">
<path d="M18.4595 5.19333L6.76136 15.3158L2.63739 13.6244L2.63746 13.6243L2.62461 13.6194C2.56283 13.596 2.5422 13.5727 2.53396 13.5614C2.52509 13.5492 2.50664 13.5174 2.50036 13.4425C2.49758 13.3714 2.5111 13.3381 2.51888 13.3238C2.52641 13.3099 2.54491 13.2833 2.60229 13.2512L2.60231 13.2512L2.60824 13.2478L21.1793 2.53354L21.1794 2.5336L21.1867 2.52919C21.223 2.50743 21.2534 2.5 21.2866 2.5C21.335 2.5 21.3686 2.5109 21.4002 2.53152C21.4578 2.57467 21.4784 2.60882 21.4872 2.62962C21.496 2.65052 21.5059 2.68859 21.4957 2.7595L18.6399 19.895C18.6398 19.8953 18.6398 19.8956 18.6397 19.8959C18.6293 19.9554 18.6053 20.0009 18.5243 20.0498C18.5004 20.0628 18.472 20.0714 18.4295 20.0714C18.4231 20.0714 18.3966 20.0698 18.3452 20.0505L13.295 17.988L12.9534 17.8485L12.7194 18.1338L10.0185 21.4262L10.0184 21.4261L10.0113 21.4352C9.97872 21.4768 9.94604 21.5 9.85823 21.5C9.83515 21.5 9.82086 21.4982 9.81375 21.4969C9.81267 21.4967 9.8118 21.4965 9.81113 21.4964L9.80087 21.4918L9.78556 21.4862C9.7395 21.4692 9.70915 21.4454 9.68251 21.4072C9.65505 21.3678 9.64396 21.3317 9.64396 21.2857V17.5687L19.1741 5.88751L18.4595 5.19333Z" stroke="black"/>
</svg>
