<svg width="75" height="75" viewBox="0 0 75 75" fill="none" xmlns="http://www.w3.org/2000/svg">
<path d="M62.9268 30.627C60.7207 29.6572 58.1836 30.8188 57.2871 33.208L52.1484 45.7031H50.4976V11.7188C50.4976 9.14062 48.5493 7.03125 46.1689 7.03125C43.7871 7.03125 41.8403 9.14062 41.8403 11.7188V33.9478L39.6753 33.9844V4.6875C39.6753 2.10937 37.7271 0 35.3467 0C32.9663 0 31.0181 2.10937 31.0181 4.6875V33.9478L28.8574 33.9844V9.375C28.8574 6.79687 26.9092 4.6875 24.5288 4.6875C22.147 4.6875 20.2002 6.79687 20.2002 9.375V36.2915L18.0322 36.3281V18.75C18.0322 16.1719 16.084 14.0625 13.7036 14.0625C11.3232 14.0625 9.375 16.1719 9.375 18.75V50.3906C9.375 61.4941 14.814 75 34.1309 75C40.1074 75 45.7646 73.9746 48.876 71.9238C50.827 70.6377 52.5055 68.9796 53.8154 67.0444C54.7943 65.6003 55.5821 64.0356 56.1592 62.3892L65.3071 36.7339C66.2109 34.3447 65.1328 31.5981 62.9268 30.627Z" fill="#FFC700"/>
</svg>
