<svg width="24" height="24" viewBox="0 0 24 24" fill="none" xmlns="http://www.w3.org/2000/svg">
<path d="M6.643 4.55022V4.55C6.643 4.00709 6.42579 3.48674 6.03805 3.10215C5.64883 2.71709 5.12138 2.5 4.571 2.5H4.57078C4.0218 2.49976 3.49493 2.71625 3.10471 3.10239L6.643 4.55022ZM6.643 4.55022C6.64312 4.81924 6.58977 5.08559 6.48605 5.33381C6.38232 5.58202 6.2303 5.80715 6.03881 5.99609L6.03754 5.99736M6.643 4.55022L6.03754 5.99736M6.03754 5.99736C5.64792 6.38458 5.12053 6.60133 4.57121 6.6L4.57034 6.6M6.03754 5.99736L4.57034 6.6M4.57034 6.6C4.02139 6.59963 3.49464 6.38331 3.10389 5.99779M4.57034 6.6L3.10389 5.99779M3.10389 5.99779C2.91302 5.80798 2.76143 5.5824 2.65781 5.33396C2.55415 5.08541 2.50052 4.81886 2.5 4.54957C2.50011 4.00631 2.71665 3.48643 3.1047 3.1024L3.10389 5.99779ZM21.5 14.803V21.5H18.5V15.688C18.5 14.5593 18.3667 13.5955 18.0065 12.8982C17.822 12.5409 17.5715 12.2411 17.2397 12.033C16.9066 11.8241 16.5225 11.727 16.103 11.727C15.0246 11.727 14.1929 12.1202 13.6518 12.8718C13.1317 13.5943 12.929 14.5817 12.929 15.687V21.5H9.929V9.469H12.643V10.819L13.5897 11.0436C14.0249 10.1781 15.2033 9.299 17.111 9.299C18.9997 9.299 20.0327 9.80141 20.6309 10.6352C21.2604 11.5127 21.5 12.8718 21.5 14.803ZM6.07 9.299V21.33H3.07V9.299H6.07Z" stroke="black"/>
</svg>
